<?xml version="1.0" encoding="UTF-8" standalone="no"?>
<svg
   width="30"
   height="30"
   fill="currentColor"
   class="bi bi-whatsapp"
   viewBox="0 0 30 30"
   version="1.1"
   id="svg4"
   sodipodi:docname="Telegram_logo.svg"
   xml:space="preserve"
   inkscape:version="1.2.2 (732a01da63, 2022-12-09)"
   xmlns:inkscape="http://www.inkscape.org/namespaces/inkscape"
   xmlns:sodipodi="http://sodipodi.sourceforge.net/DTD/sodipodi-0.dtd"
   xmlns="http://www.w3.org/2000/svg"
   xmlns:svg="http://www.w3.org/2000/svg"><defs
     id="defs8"><linearGradient
       id="linear-gradient"
       x1="120"
       y1="240"
       x2="120"
       gradientUnits="userSpaceOnUse"><stop
         offset="0"
         stop-color="#1d93d2"
         id="stop316" /><stop
         offset="1"
         stop-color="#38b0e3"
         id="stop318" /></linearGradient></defs><sodipodi:namedview
     id="namedview6"
     pagecolor="#ffffff"
     bordercolor="#000000"
     borderopacity="0.25"
     inkscape:showpageshadow="2"
     inkscape:pageopacity="0.0"
     inkscape:pagecheckerboard="0"
     inkscape:deskcolor="#d1d1d1"
     showgrid="false"
     inkscape:zoom="7.2603917"
     inkscape:cx="7.9885497"
     inkscape:cy="8.1262833"
     inkscape:window-width="1600"
     inkscape:window-height="837"
     inkscape:window-x="-8"
     inkscape:window-y="-8"
     inkscape:window-maximized="1"
     inkscape:current-layer="svg4" /><g
     id="g343"
     transform="matrix(0.12236717,0,0,0.12365675,0.36385064,0.0910843)"><circle
       cx="120"
       cy="120"
       r="120"
       fill="url(#linear-gradient)"
       id="circle325"
       style="fill:url(#linear-gradient)" /><path
       d="m 81.229,128.772 14.237,39.406 c 0,0 1.78,3.687 3.686,3.687 1.906,0 30.255,-29.492 30.255,-29.492 L 160.932,81.483 81.737,118.6 Z"
       fill="#c8daea"
       id="path327" /><path
       d="m 100.106,138.878 -2.733,29.046 c 0,0 -1.144,8.9 7.754,0 8.898,-8.9 17.415,-15.763 17.415,-15.763"
       fill="#a9c6d8"
       id="path329" /><path
       d="M 81.486,130.178 52.2,120.636 c 0,0 -3.5,-1.42 -2.373,-4.64 0.232,-0.664 0.7,-1.229 2.1,-2.2 6.489,-4.523 120.106,-45.36 120.106,-45.36 0,0 3.208,-1.081 5.1,-0.362 a 2.766,2.766 0 0 1 1.885,2.055 9.357,9.357 0 0 1 0.254,2.585 c -0.009,0.752 -0.1,1.449 -0.169,2.542 -0.692,11.165 -21.4,94.493 -21.4,94.493 0,0 -1.239,4.876 -5.678,5.043 A 8.13,8.13 0 0 1 146.1,172.5 c -8.711,-7.493 -38.819,-27.727 -45.472,-32.177 a 1.27,1.27 0 0 1 -0.546,-0.9 c -0.093,-0.469 0.417,-1.05 0.417,-1.05 0,0 52.426,-46.6 53.821,-51.492 0.108,-0.379 -0.3,-0.566 -0.848,-0.4 -3.482,1.281 -63.844,39.4 -70.506,43.607 a 3.21,3.21 0 0 1 -1.48,0.09 z"
       fill="#ffffff"
       id="path331" /></g></svg>
