<?xml version="1.0" encoding="UTF-8" standalone="no"?>
<svg
   width="30"
   height="30"
   fill="currentColor"
   class="bi bi-whatsapp"
   viewBox="0 0 30 30"
   version="1.1"
   id="svg4"
   sodipodi:docname="whatsapp.svg"
   inkscape:version="1.2.2 (732a01da63, 2022-12-09)"
   xmlns:inkscape="http://www.inkscape.org/namespaces/inkscape"
   xmlns:sodipodi="http://sodipodi.sourceforge.net/DTD/sodipodi-0.dtd"
   xmlns="http://www.w3.org/2000/svg"
   xmlns:svg="http://www.w3.org/2000/svg">
  <defs
     id="defs8" />
  <sodipodi:namedview
     id="namedview6"
     pagecolor="#ffffff"
     bordercolor="#000000"
     borderopacity="0.25"
     inkscape:showpageshadow="2"
     inkscape:pageopacity="0.0"
     inkscape:pagecheckerboard="0"
     inkscape:deskcolor="#d1d1d1"
     showgrid="false"
     inkscape:zoom="13.544309"
     inkscape:cx="7.9738289"
     inkscape:cy="8.0476606"
     inkscape:window-width="1600"
     inkscape:window-height="837"
     inkscape:window-x="-8"
     inkscape:window-y="-8"
     inkscape:window-maximized="1"
     inkscape:current-layer="svg4" />
  <path
     d="M 25.579606,4.3546332 A 14.763613,14.696256 0 0 0 15.034436,4.8333709e-5 C 6.8213536,4.8333709e-5 0.12788863,6.6611029 0.12036576,14.838586 c 0,2.619117 0.68834172,5.167092 1.98791584,7.423014 L 0,29.954201 7.9065262,27.891108 a 14.857649,14.789863 0 0 0 7.1279098,1.80661 h 0.0075 c 8.214964,0 14.906548,-6.661054 14.914071,-14.846027 A 14.857649,14.789863 0 0 0 25.577725,4.3546332 Z M 15.034436,27.185314 A 12.41272,12.356088 0 0 1 8.7227565,25.46295 L 8.2713849,25.193362 3.5808815,26.417738 4.8334377,21.862835 4.5400462,21.392929 A 12.337491,12.281202 0 0 1 2.6461661,14.831098 c 0,-6.7883598 5.5612745,-12.3261337 12.3957929,-12.3261337 a 12.337491,12.281202 0 0 1 8.764132,3.6150918 12.337491,12.281202 0 0 1 3.626019,8.7241469 C 27.42461,21.6569 21.863313,27.185314 15.034436,27.185314 m 6.798785,-9.237112 c -0.370501,-0.185341 -2.200436,-1.082094 -2.544607,-1.209399 -0.34229,-0.121689 -0.592425,-0.185341 -0.836918,0.185341 -0.250135,0.368811 -0.964807,1.209399 -1.179209,1.450905 -0.214401,0.248993 -0.436326,0.277075 -0.808707,0.09361 -0.370501,-0.187213 -1.572278,-0.576617 -2.994099,-1.844052 -1.109622,-0.982871 -1.852504,-2.199758 -2.074428,-2.568569 -0.214402,-0.370682 -0.02069,-0.569129 0.165503,-0.75447 0.163622,-0.164748 0.3705,-0.434335 0.556691,-0.647758 0.188072,-0.213424 0.250135,-0.370683 0.372382,-0.617805 0.122246,-0.250866 0.06394,-0.464289 -0.02821,-0.649631 C 12.367582,11.201029 11.6247,9.3719537 11.31062,8.6343327 11.009706,7.9060724 10.70315,8.0071676 10.473702,7.997807 10.259301,7.984702 10.009166,7.984702 9.7590305,7.984702 A 1.372922,1.3666582 0 0 0 8.7641323,8.4471193 C 8.4218421,8.8178019 7.4645581,9.7145543 7.4645581,11.54363 c 0,1.829075 1.3353077,3.587009 1.5233793,3.836003 0.18431,0.248994 2.6217166,3.991391 6.3624586,5.601427 0.883937,0.383787 1.579801,0.610316 2.123328,0.782552 0.893339,0.284564 1.700166,0.241505 2.343371,0.149771 0.714672,-0.108584 2.202317,-0.898625 2.516397,-1.765423 0.308437,-0.86867 0.308437,-1.610036 0.214401,-1.765423 -0.09215,-0.157259 -0.34229,-0.248994 -0.714672,-0.434335"
     id="path2"
     style="stroke-width:1.87642;fill:#008000" />
</svg>
